<mxfile host="app.diagrams.net" agent="Mozilla/5.0 (Macintosh; Intel Mac OS X 10_15_7) AppleWebKit/537.36 (KHTML, like Gecko) Chrome/128.0.0.0 Safari/537.36" version="24.7.16">
  <diagram name="PÃ¡gina-1" id="NSel-clD9rA0FSt_e8Y1">
    <mxGraphModel dx="1985" dy="1208" grid="1" gridSize="10" guides="1" tooltips="1" connect="1" arrows="1" fold="1" page="1" pageScale="1" pageWidth="827" pageHeight="1169" math="0" shadow="0">
      <root>
        <mxCell id="0" />
        <mxCell id="1" parent="0" />
        <mxCell id="fgS31499Sw-Imo78w0uN-3" value="" style="edgeStyle=orthogonalEdgeStyle;rounded=0;orthogonalLoop=1;jettySize=auto;html=1;" edge="1" parent="1" source="fgS31499Sw-Imo78w0uN-1" target="fgS31499Sw-Imo78w0uN-2">
          <mxGeometry relative="1" as="geometry" />
        </mxCell>
        <mxCell id="fgS31499Sw-Imo78w0uN-1" value="INICIO" style="strokeWidth=2;html=1;shape=mxgraph.flowchart.start_2;whiteSpace=wrap;" vertex="1" parent="1">
          <mxGeometry x="360" y="200" width="100" height="100" as="geometry" />
        </mxCell>
        <mxCell id="fgS31499Sw-Imo78w0uN-6" value="" style="edgeStyle=orthogonalEdgeStyle;rounded=0;orthogonalLoop=1;jettySize=auto;html=1;" edge="1" parent="1" source="fgS31499Sw-Imo78w0uN-2" target="fgS31499Sw-Imo78w0uN-5">
          <mxGeometry relative="1" as="geometry" />
        </mxCell>
        <mxCell id="fgS31499Sw-Imo78w0uN-2" value="Definir Tipo Cambio EUR a MXN = 23.70&lt;br&gt;Definir Tipo Cambio USD a MXN&amp;nbsp;= 20.75" style="whiteSpace=wrap;html=1;strokeWidth=2;" vertex="1" parent="1">
          <mxGeometry x="290" y="400" width="240" height="90" as="geometry" />
        </mxCell>
        <mxCell id="fgS31499Sw-Imo78w0uN-10" value="" style="edgeStyle=orthogonalEdgeStyle;rounded=0;orthogonalLoop=1;jettySize=auto;html=1;" edge="1" parent="1" source="fgS31499Sw-Imo78w0uN-5" target="fgS31499Sw-Imo78w0uN-9">
          <mxGeometry relative="1" as="geometry" />
        </mxCell>
        <mxCell id="fgS31499Sw-Imo78w0uN-5" value="Mostrar mensaje: &quot;Ingrese la moneda de origen para la conversion (EUR/USD)&quot;" style="shape=parallelogram;perimeter=parallelogramPerimeter;whiteSpace=wrap;html=1;fixedSize=1;strokeWidth=2;" vertex="1" parent="1">
          <mxGeometry x="290" y="585" width="240" height="105" as="geometry" />
        </mxCell>
        <mxCell id="fgS31499Sw-Imo78w0uN-12" value="" style="edgeStyle=orthogonalEdgeStyle;rounded=0;orthogonalLoop=1;jettySize=auto;html=1;" edge="1" parent="1" source="fgS31499Sw-Imo78w0uN-9" target="fgS31499Sw-Imo78w0uN-11">
          <mxGeometry relative="1" as="geometry" />
        </mxCell>
        <mxCell id="fgS31499Sw-Imo78w0uN-9" value="Mostrar mensaje: &quot;Ingrese el monto a convertir: &quot;" style="shape=parallelogram;perimeter=parallelogramPerimeter;whiteSpace=wrap;html=1;fixedSize=1;strokeWidth=2;" vertex="1" parent="1">
          <mxGeometry x="290" y="792.5" width="240" height="97.5" as="geometry" />
        </mxCell>
        <mxCell id="fgS31499Sw-Imo78w0uN-14" value="" style="edgeStyle=orthogonalEdgeStyle;rounded=0;orthogonalLoop=1;jettySize=auto;html=1;" edge="1" parent="1" source="fgS31499Sw-Imo78w0uN-11" target="fgS31499Sw-Imo78w0uN-13">
          <mxGeometry relative="1" as="geometry" />
        </mxCell>
        <mxCell id="fgS31499Sw-Imo78w0uN-19" value="" style="edgeStyle=orthogonalEdgeStyle;rounded=0;orthogonalLoop=1;jettySize=auto;html=1;" edge="1" parent="1" source="fgS31499Sw-Imo78w0uN-11" target="fgS31499Sw-Imo78w0uN-18">
          <mxGeometry relative="1" as="geometry" />
        </mxCell>
        <mxCell id="fgS31499Sw-Imo78w0uN-11" value="tipo_conversion es EUR" style="rhombus;whiteSpace=wrap;html=1;strokeWidth=2;" vertex="1" parent="1">
          <mxGeometry x="320" y="978.75" width="180" height="161.25" as="geometry" />
        </mxCell>
        <mxCell id="fgS31499Sw-Imo78w0uN-16" value="" style="edgeStyle=orthogonalEdgeStyle;rounded=0;orthogonalLoop=1;jettySize=auto;html=1;" edge="1" parent="1" source="fgS31499Sw-Imo78w0uN-13" target="fgS31499Sw-Imo78w0uN-15">
          <mxGeometry relative="1" as="geometry" />
        </mxCell>
        <mxCell id="fgS31499Sw-Imo78w0uN-13" value="Calcular resultado = monto_a_convertir * tipo_cambio_eur_a_mxn" style="whiteSpace=wrap;html=1;strokeWidth=2;" vertex="1" parent="1">
          <mxGeometry x="600" y="1010" width="180" height="100.01" as="geometry" />
        </mxCell>
        <mxCell id="fgS31499Sw-Imo78w0uN-15" value="Mostrar:&amp;nbsp;&lt;div&gt;&quot;El resultado de la conversion de EUR a MXN es:&quot;, resultado&lt;/div&gt;" style="shape=parallelogram;perimeter=parallelogramPerimeter;whiteSpace=wrap;html=1;fixedSize=1;strokeWidth=2;" vertex="1" parent="1">
          <mxGeometry x="890" y="1000" width="240" height="120" as="geometry" />
        </mxCell>
        <mxCell id="fgS31499Sw-Imo78w0uN-17" value="Si" style="text;html=1;align=center;verticalAlign=middle;resizable=0;points=[];autosize=1;strokeColor=none;fillColor=none;" vertex="1" parent="1">
          <mxGeometry x="525" y="1028" width="30" height="30" as="geometry" />
        </mxCell>
        <mxCell id="fgS31499Sw-Imo78w0uN-21" value="" style="edgeStyle=orthogonalEdgeStyle;rounded=0;orthogonalLoop=1;jettySize=auto;html=1;" edge="1" parent="1" source="fgS31499Sw-Imo78w0uN-18" target="fgS31499Sw-Imo78w0uN-20">
          <mxGeometry relative="1" as="geometry" />
        </mxCell>
        <mxCell id="fgS31499Sw-Imo78w0uN-25" value="" style="edgeStyle=orthogonalEdgeStyle;rounded=0;orthogonalLoop=1;jettySize=auto;html=1;" edge="1" parent="1" source="fgS31499Sw-Imo78w0uN-18" target="fgS31499Sw-Imo78w0uN-24">
          <mxGeometry relative="1" as="geometry" />
        </mxCell>
        <mxCell id="fgS31499Sw-Imo78w0uN-18" value="tipo_conversion es USD" style="rhombus;whiteSpace=wrap;html=1;strokeWidth=2;" vertex="1" parent="1">
          <mxGeometry x="320" y="1220" width="180" height="161.25" as="geometry" />
        </mxCell>
        <mxCell id="fgS31499Sw-Imo78w0uN-23" value="" style="edgeStyle=orthogonalEdgeStyle;rounded=0;orthogonalLoop=1;jettySize=auto;html=1;" edge="1" parent="1" source="fgS31499Sw-Imo78w0uN-20" target="fgS31499Sw-Imo78w0uN-22">
          <mxGeometry relative="1" as="geometry" />
        </mxCell>
        <mxCell id="fgS31499Sw-Imo78w0uN-20" value="Calcular resultado = monto_a_convertir * tipo_cambio_eur_a_mxn" style="whiteSpace=wrap;html=1;strokeWidth=2;" vertex="1" parent="1">
          <mxGeometry x="600" y="1240" width="180" height="120.01" as="geometry" />
        </mxCell>
        <mxCell id="fgS31499Sw-Imo78w0uN-22" value="Mostrar:&amp;nbsp;&lt;div&gt;&quot;El resultado de la conversion de USD a MXN es:&quot;, resultado&lt;/div&gt;" style="shape=parallelogram;perimeter=parallelogramPerimeter;whiteSpace=wrap;html=1;fixedSize=1;strokeWidth=2;" vertex="1" parent="1">
          <mxGeometry x="890" y="1230" width="270" height="140" as="geometry" />
        </mxCell>
        <mxCell id="fgS31499Sw-Imo78w0uN-27" value="" style="edgeStyle=orthogonalEdgeStyle;rounded=0;orthogonalLoop=1;jettySize=auto;html=1;" edge="1" parent="1" source="fgS31499Sw-Imo78w0uN-24" target="fgS31499Sw-Imo78w0uN-26">
          <mxGeometry relative="1" as="geometry" />
        </mxCell>
        <mxCell id="fgS31499Sw-Imo78w0uN-24" value="Mostrar:&amp;nbsp;&lt;div&gt;&quot;No esta disponible este tipo de conversion actualmente&quot;&lt;/div&gt;" style="shape=parallelogram;perimeter=parallelogramPerimeter;whiteSpace=wrap;html=1;fixedSize=1;strokeWidth=2;" vertex="1" parent="1">
          <mxGeometry x="310" y="1480" width="200" height="91.88" as="geometry" />
        </mxCell>
        <mxCell id="fgS31499Sw-Imo78w0uN-26" value="FIN" style="ellipse;whiteSpace=wrap;html=1;strokeWidth=2;" vertex="1" parent="1">
          <mxGeometry x="340" y="1657.82" width="140" height="132.18" as="geometry" />
        </mxCell>
        <mxCell id="fgS31499Sw-Imo78w0uN-28" value="" style="endArrow=classic;html=1;rounded=0;exitX=1;exitY=0.5;exitDx=0;exitDy=0;entryX=1;entryY=0.5;entryDx=0;entryDy=0;" edge="1" parent="1" source="fgS31499Sw-Imo78w0uN-15" target="fgS31499Sw-Imo78w0uN-26">
          <mxGeometry width="50" height="50" relative="1" as="geometry">
            <mxPoint x="700" y="1170" as="sourcePoint" />
            <mxPoint x="760" y="1210" as="targetPoint" />
            <Array as="points">
              <mxPoint x="1310" y="1060" />
              <mxPoint x="1310" y="1724" />
            </Array>
          </mxGeometry>
        </mxCell>
        <mxCell id="fgS31499Sw-Imo78w0uN-29" value="" style="endArrow=classic;html=1;rounded=0;exitX=0.5;exitY=1;exitDx=0;exitDy=0;" edge="1" parent="1" source="fgS31499Sw-Imo78w0uN-22">
          <mxGeometry width="50" height="50" relative="1" as="geometry">
            <mxPoint x="710" y="1260" as="sourcePoint" />
            <mxPoint x="1025" y="1720" as="targetPoint" />
          </mxGeometry>
        </mxCell>
        <mxCell id="fgS31499Sw-Imo78w0uN-30" value="NO" style="text;html=1;align=center;verticalAlign=middle;resizable=0;points=[];autosize=1;strokeColor=none;fillColor=none;" vertex="1" parent="1">
          <mxGeometry x="410" y="1168" width="40" height="30" as="geometry" />
        </mxCell>
        <mxCell id="fgS31499Sw-Imo78w0uN-31" value="SI" style="text;html=1;align=center;verticalAlign=middle;resizable=0;points=[];autosize=1;strokeColor=none;fillColor=none;" vertex="1" parent="1">
          <mxGeometry x="525" y="1268" width="30" height="30" as="geometry" />
        </mxCell>
        <mxCell id="fgS31499Sw-Imo78w0uN-32" value="NO" style="text;html=1;align=center;verticalAlign=middle;resizable=0;points=[];autosize=1;strokeColor=none;fillColor=none;" vertex="1" parent="1">
          <mxGeometry x="420" y="1418" width="40" height="30" as="geometry" />
        </mxCell>
      </root>
    </mxGraphModel>
  </diagram>
</mxfile>
